<?xml version="1.0" encoding="utf-8"?>
<!-- Generator: Adobe Illustrator 18.0.0, SVG Export Plug-In . SVG Version: 6.00 Build 0)  -->
<!DOCTYPE svg PUBLIC "-//W3C//DTD SVG 1.1//EN" "http://www.w3.org/Graphics/SVG/1.1/DTD/svg11.dtd">
<svg version="1.1" id="Layer_1" xmlns="http://www.w3.org/2000/svg" xmlns:xlink="http://www.w3.org/1999/xlink" x="0px" y="0px"
	 viewBox="0 0 24 24" enable-background="new 0 0 24 24" xml:space="preserve">
<g>
	<path d="M14,11c2.2,0,4-1.8,4-4c0-2.2-1.8-4-4-4s-4,1.8-4,4C10,9.2,11.8,11,14,11z M14,5c1.1,0,2,0.9,2,2c0,1.1-0.9,2-2,2
		s-2-0.9-2-2C12,5.9,12.9,5,14,5z"/>
	<path d="M16,13h-4c-3.3,0-6,2.7-6,6v2h16v-2C22,15.7,19.3,13,16,13z M8,19c0-2.2,1.8-4,4-4h4c2.2,0,4,1.8,4,4H8z"/>
	<polygon points="8,9 5,9 5,6 3,6 3,9 0,9 0,11 3,11 3,14 5,14 5,11 8,11 	"/>
</g>
</svg>
