<?xml version="1.0" encoding="utf-8"?>
<!-- Generator: Adobe Illustrator 18.0.0, SVG Export Plug-In . SVG Version: 6.00 Build 0)  -->
<!DOCTYPE svg PUBLIC "-//W3C//DTD SVG 1.1//EN" "http://www.w3.org/Graphics/SVG/1.1/DTD/svg11.dtd">
<svg version="1.1" id="Layer_1" xmlns="http://www.w3.org/2000/svg" xmlns:xlink="http://www.w3.org/1999/xlink" x="0px" y="0px"
	 viewBox="0 0 24 24" enable-background="new 0 0 24 24" xml:space="preserve">
<g>
	<path d="M13.8,4.7l0.7,0.7l-3.4,3.4L7.7,10l-1-1l-1.4,1.4l3.5,3.5l-5.7,5.7L4.6,21l5.7-5.7l3.5,3.5l1.4-1.4l-1-1l1.1-3.4l3.4-3.4
		l0.7,0.7L20.9,9l-5.7-5.7L13.8,4.7z M13.7,12l-1,2.9l-3.4-3.4l2.9-1l3.7-3.7l1.4,1.4L13.7,12z"/>
	<polygon points="10,3.3 7.8,3.3 7.8,1 6.3,1 6.3,3.3 4,3.3 4,4.8 6.3,4.8 6.3,7 7.8,7 7.8,4.8 10,4.8 	"/>
</g>
</svg>
