<?xml version="1.0" encoding="utf-8"?>
<!-- Generator: Adobe Illustrator 18.0.0, SVG Export Plug-In . SVG Version: 6.00 Build 0)  -->
<!DOCTYPE svg PUBLIC "-//W3C//DTD SVG 1.1//EN" "http://www.w3.org/Graphics/SVG/1.1/DTD/svg11.dtd">
<svg version="1.1" id="Layer_1" xmlns="http://www.w3.org/2000/svg" xmlns:xlink="http://www.w3.org/1999/xlink" x="0px" y="0px"
	 viewBox="0 0 24 24" enable-background="new 0 0 24 24" xml:space="preserve">
<path d="M19.5,5.4c-0.5-0.5-1-1-1.5-1.4c-1.7-1.3-3.8-2-6-2S7.7,2.8,6,4C5.5,4.4,5,4.9,4.5,5.4C2.9,7.2,2,9.5,2,12
	c0,2.5,0.9,4.8,2.5,6.6c0.5,0.5,1,1,1.5,1.4c1.7,1.3,3.8,2,6,2s4.3-0.8,6-2c0.5-0.4,1-0.9,1.5-1.4c1.6-1.8,2.5-4.1,2.5-6.6
	C22,9.5,21.1,7.2,19.5,5.4z M4,12c0-2,0.8-3.9,2-5.3C7.2,8.1,8,10,8,12c0,2-0.8,3.9-2,5.3C4.8,15.9,4,14,4,12z M12,20
	c-1.7,0-3.2-0.5-4.5-1.4C9.1,16.8,10,14.5,10,12c0-2.5-0.9-4.8-2.5-6.6C8.8,4.5,10.3,4,12,4s3.2,0.5,4.5,1.4C14.9,7.2,14,9.5,14,12
	c0,2.5,0.9,4.8,2.5,6.6C15.2,19.5,13.7,20,12,20z M18,17.3c-1.2-1.4-2-3.3-2-5.3c0-2,0.8-3.9,2-5.3c1.2,1.4,2,3.3,2,5.3
	C20,14,19.2,15.9,18,17.3z"/>
</svg>
