<?xml version="1.0" encoding="utf-8"?>
<!-- Generator: Adobe Illustrator 18.0.0, SVG Export Plug-In . SVG Version: 6.00 Build 0)  -->
<!DOCTYPE svg PUBLIC "-//W3C//DTD SVG 1.1//EN" "http://www.w3.org/Graphics/SVG/1.1/DTD/svg11.dtd">
<svg version="1.1" id="Layer_1" xmlns="http://www.w3.org/2000/svg" xmlns:xlink="http://www.w3.org/1999/xlink" x="0px" y="0px"
	 viewBox="0 0 24 24" enable-background="new 0 0 24 24" xml:space="preserve">
<g>
	<path d="M12,22c1.1,0,2-0.9,2-2h-4C10,21.1,10.9,22,12,22z"/>
	<path d="M20.1,18.1L20.1,18.1L16,14L9.2,7.2L7.8,5.8L5.9,3.9L4.5,5.3l2.1,2.1C6.2,8.2,6,9.1,6,10v6H4v2h13.2l1.5,1.5L20.1,18.1z
		 M8,16v-6c0-0.4,0.1-0.7,0.1-1l7,7H8z"/>
	<path d="M12,6c2.2,0,4,1.8,4,4v1.2l2,2V10c0-3-2.2-5.4-5-5.9V3h-2v1.1c-0.6,0.1-1.1,0.3-1.6,0.5L11,6.1C11.3,6.1,11.6,6,12,6z"/>
</g>
</svg>
