<?xml version="1.0" encoding="utf-8"?>
<!-- Generator: Adobe Illustrator 18.0.0, SVG Export Plug-In . SVG Version: 6.00 Build 0)  -->
<!DOCTYPE svg PUBLIC "-//W3C//DTD SVG 1.1//EN" "http://www.w3.org/Graphics/SVG/1.1/DTD/svg11.dtd">
<svg version="1.1" id="Layer_1" xmlns="http://www.w3.org/2000/svg" xmlns:xlink="http://www.w3.org/1999/xlink" x="0px" y="0px"
	 viewBox="0 0 24 24" enable-background="new 0 0 24 24" xml:space="preserve">
<g>
	<path d="M12,22c1.1,0,2-0.9,2-2h-4C10,21.1,10.9,22,12,22z"/>
	<path d="M18,10c0-3-2.2-5.4-5-5.9V3h-2v1.1C8.2,4.6,6,7,6,10v6H4v2h16v-2h-2V10z M16,16H8v-6c0-2.2,1.8-4,4-4s4,1.8,4,4V16z"/>
	<path d="M6.3,4.3L4.9,2.9C3.1,4.7,2,7.2,2,10h2C4,7.8,4.9,5.8,6.3,4.3z"/>
	<path d="M19.1,2.9l-1.4,1.4C19.1,5.8,20,7.8,20,10h2C22,7.2,20.9,4.7,19.1,2.9z"/>
</g>
</svg>
