<?xml version="1.0" encoding="utf-8"?>
<!-- Generator: Adobe Illustrator 18.0.0, SVG Export Plug-In . SVG Version: 6.00 Build 0)  -->
<!DOCTYPE svg PUBLIC "-//W3C//DTD SVG 1.1//EN" "http://www.w3.org/Graphics/SVG/1.1/DTD/svg11.dtd">
<svg version="1.1" id="Layer_1" xmlns="http://www.w3.org/2000/svg" xmlns:xlink="http://www.w3.org/1999/xlink" x="0px" y="0px"
	 viewBox="0 0 24 24" enable-background="new 0 0 24 24" xml:space="preserve">
<g>
	<path d="M12,4c2.8,0,5,2.2,5,5v4v0.8l0.6,0.6l0.6,0.6H5.8l0.6-0.6L7,13.8V13V9C7,6.2,9.2,4,12,4 M12,2C8.1,2,5,5.1,5,9v4l-2,2v2h18
		v-2l-2-2V9C19,5.1,15.9,2,12,2L12,2z"/>
	<path d="M9,19c0,1.7,1.3,3,3,3s3-1.3,3-3H9z"/>
</g>
</svg>
