<?xml version="1.0" encoding="utf-8"?>
<!-- Generator: Adobe Illustrator 18.0.0, SVG Export Plug-In . SVG Version: 6.00 Build 0)  -->
<!DOCTYPE svg PUBLIC "-//W3C//DTD SVG 1.1//EN" "http://www.w3.org/Graphics/SVG/1.1/DTD/svg11.dtd">
<svg version="1.1" id="Layer_1" xmlns="http://www.w3.org/2000/svg" xmlns:xlink="http://www.w3.org/1999/xlink" x="0px" y="0px"
	 viewBox="0 0 24 24" enable-background="new 0 0 24 24" xml:space="preserve">
<g>
	<path fill="#221F1F" d="M9,5v4H5V5H9 M9,3H5C3.9,3,3,3.9,3,5v4c0,1.1,0.9,2,2,2h4c1.1,0,2-0.9,2-2V5C11,3.9,10.1,3,9,3L9,3z"/>
	<path fill="#221F1F" d="M19,5v4h-4V5H19 M19,3h-4c-1.1,0-2,0.9-2,2v4c0,1.1,0.9,2,2,2h4c1.1,0,2-0.9,2-2V5C21,3.9,20.1,3,19,3L19,3
		z"/>
	<path fill="#221F1F" d="M9,15v4H5v-4H9 M9,13H5c-1.1,0-2,0.9-2,2v4c0,1.1,0.9,2,2,2h4c1.1,0,2-0.9,2-2v-4C11,13.9,10.1,13,9,13
		L9,13z"/>
	<path fill="#221F1F" d="M19,15v4h-4v-4H19 M19,13h-4c-1.1,0-2,0.9-2,2v4c0,1.1,0.9,2,2,2h4c1.1,0,2-0.9,2-2v-4
		C21,13.9,20.1,13,19,13L19,13z"/>
</g>
</svg>
