<?xml version="1.0" encoding="utf-8"?>
<!-- Generator: Adobe Illustrator 18.0.0, SVG Export Plug-In . SVG Version: 6.00 Build 0)  -->
<!DOCTYPE svg PUBLIC "-//W3C//DTD SVG 1.1//EN" "http://www.w3.org/Graphics/SVG/1.1/DTD/svg11.dtd">
<svg version="1.1" id="Layer_1" xmlns="http://www.w3.org/2000/svg" xmlns:xlink="http://www.w3.org/1999/xlink" x="0px" y="0px"
	 viewBox="0 0 24 24" enable-background="new 0 0 24 24" xml:space="preserve">
<g>
	<path d="M12,2C6.5,2,2,6.5,2,12s4.5,10,10,10s10-4.5,10-10S17.5,2,12,2z M12,20c-4.4,0-8-3.6-8-8s3.6-8,8-8s8,3.6,8,8
		S16.4,20,12,20z"/>
	<path d="M13,11.3h-2c-0.7,0-1.3-0.6-1.3-1.3s0.6-1.3,1.3-1.3h4V7.3h-2.3V6h-1.5v1.3H11c-1.5,0-2.8,1.2-2.8,2.8s1.2,2.8,2.8,2.8h2
		c0.7,0,1.3,0.6,1.3,1.3s-0.6,1.3-1.3,1.3H9v1.5h2.3V18h1.5v-1.3H13c1.5,0,2.8-1.2,2.8-2.8S14.5,11.3,13,11.3z"/>
</g>
</svg>
