<?xml version="1.0" encoding="utf-8"?>
<!-- Generator: Adobe Illustrator 18.0.0, SVG Export Plug-In . SVG Version: 6.00 Build 0)  -->
<!DOCTYPE svg PUBLIC "-//W3C//DTD SVG 1.1//EN" "http://www.w3.org/Graphics/SVG/1.1/DTD/svg11.dtd">
<svg version="1.1" id="Layer_1" xmlns="http://www.w3.org/2000/svg" xmlns:xlink="http://www.w3.org/1999/xlink" x="0px" y="0px"
	 viewBox="0 0 24 24" enable-background="new 0 0 24 24" xml:space="preserve">
<g>
	<circle cx="10" cy="11" r="1"/>
	<circle cx="14" cy="11" r="1"/>
	<path d="M20.3,16.2C20,14.7,19.6,13,19,11.3c0.6-2.1,1.6-6.7,0.4-8.4c-0.3-0.5-0.8-0.7-1.4-0.7c-1.2,0-2.8,1.3-3.7,2.3
		C13.6,4.2,12.8,4,12,4s-1.6,0.2-2.3,0.6c-1-1-2.5-2.3-3.7-2.3c-0.6,0-1.1,0.2-1.4,0.7C3.4,4.6,4.4,9.2,5,11.3
		c-0.6,1.7-1,3.4-1.3,4.9C3.2,18.7,5.1,21,7.6,21h8.7C18.9,21,20.8,18.7,20.3,16.2z M5.8,3.8C5.9,3.8,5.9,3.8,6,3.8
		c0.5,0,1.5,0.8,2.5,1.7C7.5,6.3,6.7,7.6,6,9C5.6,6.8,5.3,4.5,5.8,3.8z M17.9,18.3c-0.4,0.5-1,0.7-1.6,0.7H7.6
		c-0.6,0-1.2-0.3-1.6-0.7c-0.2-0.3-0.6-0.8-0.4-1.6C7,10,9.4,6,12,6s5,4,6.3,10.6C18.5,17.4,18.1,18,17.9,18.3z M18,9
		c-0.7-1.4-1.5-2.6-2.5-3.5c0.9-0.9,2-1.7,2.5-1.7c0.1,0,0.1,0,0.2,0.1C18.7,4.5,18.5,6.6,18,9z"/>
	<path d="M12.6,14h-1.2c-0.8,0-1.4,0.6-1.4,1.4v0c0,0.4,0.1,0.7,0.4,1l0.9,0.9c0.4,0.4,1,0.4,1.4,0l0.9-0.9c0.3-0.3,0.4-0.6,0.4-1v0
		C14,14.6,13.4,14,12.6,14z"/>
</g>
</svg>
