<?xml version="1.0" encoding="utf-8"?>
<!-- Generator: Adobe Illustrator 18.0.0, SVG Export Plug-In . SVG Version: 6.00 Build 0)  -->
<!DOCTYPE svg PUBLIC "-//W3C//DTD SVG 1.1//EN" "http://www.w3.org/Graphics/SVG/1.1/DTD/svg11.dtd">
<svg version="1.1" id="Layer_1" xmlns="http://www.w3.org/2000/svg" xmlns:xlink="http://www.w3.org/1999/xlink" x="0px" y="0px"
	 viewBox="0 0 24 24" enable-background="new 0 0 24 24" xml:space="preserve">
<g>
	<polygon points="14,3 14,5 17.8,5 12.9,9.9 14.3,11.3 19,6.6 19,10.2 21,10.2 21,3 	"/>
	<path d="M3,10.2h2V5h5V3H5C3.9,3,3,3.9,3,5V10.2z"/>
	<path d="M5,14.2H3V19c0,1.1,0.9,2,2,2h5v-2H5V14.2z"/>
	<path d="M19,19h-5v2h5c1.1,0,2-0.9,2-2v-4.8h-2V19z"/>
</g>
</svg>
