<svg width="24" height="24" viewBox="0 0 24 24" fill="none" xmlns="http://www.w3.org/2000/svg">
<path fill-rule="evenodd" clip-rule="evenodd" d="M4.92896 3.51471L3.51474 4.92892L5.97515 7.38933C4.46742 8.5776 3.32116 9.93994 2.7 10.8C2.1 11.5 2.1 12.5 2.7 13.2C4 15 7.6 19 12 19C13.5709 19 15.0398 18.4902 16.3384 17.7526L19.0711 20.4853L20.4853 19.0711L4.92896 3.51471ZM4.2 12C4.68291 11.3561 5.85678 9.9637 7.39721 8.81139L9.29238 10.7066C9.10496 11.0982 9 11.5368 9 12C9 13.6569 10.3431 15 12 15C12.4632 15 12.9018 14.895 13.2934 14.7076L14.8573 16.2715C13.9566 16.7128 12.9896 17 12 17C8.4 17 5.1 13.2 4.2 12Z" fill="black"/>
<path d="M9.6226 5.37995L11.2906 7.04797C11.5254 7.01661 11.762 7 12 7C15.6 7 18.9 10.8 19.8 12C19.493 12.4094 18.9066 13.1213 18.1244 13.8817L19.5194 15.2768C20.2973 14.4974 20.9049 13.7471 21.3 13.2C21.9 12.5 21.9 11.5 21.3 10.8C20 9 16.4 5 12 5C11.1762 5 10.3805 5.14021 9.6226 5.37995Z" fill="black"/>
</svg>
