<svg width="24" height="24" viewBox="0 0 24 24" fill="none" xmlns="http://www.w3.org/2000/svg">
<path d="M12 19C7.6 19 4 15 2.7 13.2C2.1 12.5 2.1 11.5 2.7 10.8C4 9 7.6 5 12 5C16.4 5 20 9 21.3 10.8C21.9 11.5 21.9 12.5 21.3 13.2C20 15 16.4 19 12 19ZM12 7C8.4 7 5.1 10.8 4.2 12C5.1 13.2 8.4 17 12 17C15.6 17 18.9 13.2 19.8 12C18.9 10.8 15.6 7 12 7Z" fill="black"/>
<path d="M12 15C13.6569 15 15 13.6569 15 12C15 10.3431 13.6569 9 12 9C10.3431 9 9 10.3431 9 12C9 13.6569 10.3431 15 12 15Z" fill="black"/>
</svg>
