<?xml version="1.0" encoding="utf-8"?>
<!-- Generator: Adobe Illustrator 18.0.0, SVG Export Plug-In . SVG Version: 6.00 Build 0)  -->
<!DOCTYPE svg PUBLIC "-//W3C//DTD SVG 1.1//EN" "http://www.w3.org/Graphics/SVG/1.1/DTD/svg11.dtd">
<svg version="1.1" id="Layer_1" xmlns="http://www.w3.org/2000/svg" xmlns:xlink="http://www.w3.org/1999/xlink" x="0px" y="0px"
	 viewBox="0 0 24 24" enable-background="new 0 0 24 24" xml:space="preserve">
<g>
	<polygon points="16,12 14,12 14,14 10,14 10,10 12,10 12,8 10,8 10,3 8,3 8,8 3,8 3,10 8,10 8,14 3,14 3,16 8,16 8,21 10,21 10,16 
		14,16 14,21 16,21 16,16 21,16 21,14 16,14 	"/>
	<path d="M18.5,1C16,1,14,3,14,5.5s2,4.5,4.5,4.5S23,8,23,5.5S21,1,18.5,1z M17.5,7C17.5,7,17.5,7,17.5,7c-0.2-0.1-0.3-0.1-0.3-0.2
		c-0.6-0.5-1.7-1.1-1.8-2c-0.1-0.7,0.8-1.6,1.3-2c0.8-0.6,2.3-1.1,3.2-0.5c0.6,0.4-1.2,1-1.4,1.3c-0.3,0.4-0.3,0.9-0.3,1.4
		c0,0.5,0.1,1.2-0.2,1.6C17.9,6.9,17.7,7,17.5,7z M20.8,7.9c-0.4,0.3-0.9,0.2-1.3,0.5c-0.1,0.1-0.2,0.2-0.3,0.2
		c-0.2,0.1-0.5-0.1-0.5-0.3c-0.3-0.8,0.3-1.2,0.9-1.3c0.3,0,0.7,0,1,0c0.2,0,0.4,0.1,0.4,0.3C21.1,7.5,20.9,7.7,20.8,7.9z"/>
</g>
</svg>
