<?xml version="1.0" encoding="utf-8"?>
<!-- Generator: Adobe Illustrator 18.0.0, SVG Export Plug-In . SVG Version: 6.00 Build 0)  -->
<!DOCTYPE svg PUBLIC "-//W3C//DTD SVG 1.1//EN" "http://www.w3.org/Graphics/SVG/1.1/DTD/svg11.dtd">
<svg version="1.1" id="Layer_1" xmlns="http://www.w3.org/2000/svg" xmlns:xlink="http://www.w3.org/1999/xlink" x="0px" y="0px"
	 viewBox="0 0 24 24" enable-background="new 0 0 24 24" xml:space="preserve">
<g>
	<polygon points="16,12 14,12 14,14 10,14 10,10 12,10 12,8 10,8 10,3 8,3 8,8 3,8 3,10 8,10 8,14 3,14 3,16 8,16 8,21 10,21 10,16 
		14,16 14,21 16,21 16,16 21,16 21,14 16,14 	"/>
	<path d="M18,0l-4,2v2c0,1.9,0.9,3.7,2.4,4.8L18,10l1.6-1.2C21.1,7.7,22,5.9,22,4V2L18,0z"/>
</g>
</svg>
