<?xml version="1.0" encoding="utf-8"?>
<!-- Generator: Adobe Illustrator 18.0.0, SVG Export Plug-In . SVG Version: 6.00 Build 0)  -->
<!DOCTYPE svg PUBLIC "-//W3C//DTD SVG 1.1//EN" "http://www.w3.org/Graphics/SVG/1.1/DTD/svg11.dtd">
<svg version="1.1" id="Layer_1" xmlns="http://www.w3.org/2000/svg" xmlns:xlink="http://www.w3.org/1999/xlink" x="0px" y="0px"
	 viewBox="0 0 24 24" enable-background="new 0 0 24 24" xml:space="preserve">
<path d="M16.6,5.1c0.9,0,1.8,0.4,2.5,1c0.7,0.7,1,1.5,1,2.5c0,0.9-0.4,1.8-1,2.5l-0.7,0.7L12,18.2l-7.1-7.1c-0.7-0.7-1-1.5-1-2.5
	c0-0.9,0.4-1.8,1-2.5c0.7-0.7,1.5-1,2.5-1s1.8,0.4,2.5,1l0.7,0.7L12,8.2l1.4-1.4l0.7-0.7C14.8,5.5,15.7,5.1,16.6,5.1 M16.6,3.1
	c-1.4,0-2.8,0.5-3.9,1.6L12,5.4l-0.7-0.7c-1.1-1.1-2.5-1.6-3.9-1.6C6,3.1,4.6,3.6,3.5,4.7c-2.2,2.1-2.2,5.6,0,7.8L12,21l7.8-7.8
	l0.7-0.7c1.1-1.1,1.6-2.5,1.6-3.9c0-1.4-0.5-2.8-1.6-3.9C19.4,3.6,18,3.1,16.6,3.1L16.6,3.1z"/>
</svg>
