<?xml version="1.0" encoding="utf-8"?>
<!-- Generator: Adobe Illustrator 18.0.0, SVG Export Plug-In . SVG Version: 6.00 Build 0)  -->
<!DOCTYPE svg PUBLIC "-//W3C//DTD SVG 1.1//EN" "http://www.w3.org/Graphics/SVG/1.1/DTD/svg11.dtd">
<svg version="1.1" id="Layer_1" xmlns="http://www.w3.org/2000/svg" xmlns:xlink="http://www.w3.org/1999/xlink" x="0px" y="0px"
	 viewBox="0 0 24 24" enable-background="new 0 0 24 24" xml:space="preserve">
<path d="M19,12V5c0-1.1-0.9-2-2-2H7C5.9,3,5,3.9,5,5v7c-1.1,0-2,0.9-2,2v5c0,1.1,0.9,2,2,2h14c1.1,0,2-0.9,2-2v-5
	C21,12.9,20.1,12,19,12z M7,5h10v7h-3v1c0,1.1-0.9,2-2,2c-1.1,0-2-0.9-2-2v-1H7V5z M19,19H5v-5h3.1c0.4,1.7,2,3,3.9,3
	c1.9,0,3.4-1.3,3.9-3H19V19z"/>
</svg>
