<?xml version="1.0" encoding="utf-8"?>
<!-- Generator: Adobe Illustrator 18.0.0, SVG Export Plug-In . SVG Version: 6.00 Build 0)  -->
<!DOCTYPE svg PUBLIC "-//W3C//DTD SVG 1.1//EN" "http://www.w3.org/Graphics/SVG/1.1/DTD/svg11.dtd">
<svg version="1.1" id="Layer_1" xmlns="http://www.w3.org/2000/svg" xmlns:xlink="http://www.w3.org/1999/xlink" x="0px" y="0px"
	 viewBox="0 0 24 24" enable-background="new 0 0 24 24" xml:space="preserve">
<g>
	<path d="M18,10h-1V7.2c0-2.6-1.9-4.9-4.5-5.2C9.5,1.7,7,4.1,7,7v3H6c-1.1,0-2,0.9-2,2v8c0,1.1,0.9,2,2,2h12c1.1,0,2-0.9,2-2v-8
		C20,10.9,19.1,10,18,10z M9,7c0-1.7,1.3-3,3-3c1.7,0,3,1.3,3,3v3H9V7z M18,20H6v-8h12V20z"/>
	<circle cx="12" cy="16" r="2"/>
</g>
</svg>
