<?xml version="1.0" encoding="utf-8"?>
<!-- Generator: Adobe Illustrator 18.0.0, SVG Export Plug-In . SVG Version: 6.00 Build 0)  -->
<!DOCTYPE svg PUBLIC "-//W3C//DTD SVG 1.1//EN" "http://www.w3.org/Graphics/SVG/1.1/DTD/svg11.dtd">
<svg version="1.1" id="Layer_1" xmlns="http://www.w3.org/2000/svg" xmlns:xlink="http://www.w3.org/1999/xlink" x="0px" y="0px"
	 viewBox="0 0 24 24" enable-background="new 0 0 24 24" xml:space="preserve">
<g>
	<rect x="7" y="12" fill="#010101" width="10" height="2"/>
	<g>
		<circle fill="#010101" cx="19" cy="6" r="4"/>
	</g>
	<path fill="#010101" d="M13.3,8H7v2h7.5C14,9.4,13.6,8.7,13.3,8z"/>
	<path fill="#010101" d="M19,12v5.6l-2.4-1.3L16.1,16h-0.5H5V6h8c0-0.7,0.1-1.4,0.3-2H4.8C3.8,4,3,4.9,3,6v10c0,1.1,0.8,2,1.8,2
		h10.8l5.4,3v-9.3C20.4,11.9,19.7,12,19,12z"/>
</g>
</svg>
