<?xml version="1.0" encoding="utf-8"?>
<!-- Generator: Adobe Illustrator 18.0.0, SVG Export Plug-In . SVG Version: 6.00 Build 0)  -->
<!DOCTYPE svg PUBLIC "-//W3C//DTD SVG 1.1//EN" "http://www.w3.org/Graphics/SVG/1.1/DTD/svg11.dtd">
<svg version="1.1" id="Layer_1" xmlns="http://www.w3.org/2000/svg" xmlns:xlink="http://www.w3.org/1999/xlink" x="0px" y="0px"
	 viewBox="0 0 24 24" enable-background="new 0 0 24 24" xml:space="preserve">
<g>
	<polygon points="11,7 11,13 14.5,16.5 15.9,15.1 13,12.2 13,7 	"/>
	<path d="M12,2C8.7,2,5.8,3.6,4,6V4H2.5v5h5V7.5H5.4C6.9,5.4,9.3,4,12,4c4.4,0,8,3.6,8,8s-3.6,8-8,8s-8-3.6-8-8H2
		c0,5.5,4.5,10,10,10s10-4.5,10-10S17.5,2,12,2z"/>
</g>
<g>
	<polygon points="49,44 49,50 53.2,54.2 54.7,52.8 51,49.2 51,44 	"/>
	<polygon points="45.5,47 40.5,47 40.5,42 42,42 42,45.5 45.5,45.5 	"/>
	<path d="M50,40c-4.1,0-7.6,2.5-9.2,6h2.2c1.4-2.4,4-4,6.9-4c4.4,0,8,3.6,8,8s-3.6,8-8,8s-8-3.6-8-8h-2c0,5.5,4.5,10,10,10
		s10-4.5,10-10S55.5,40,50,40z"/>
</g>
</svg>
