<?xml version="1.0" encoding="utf-8"?>
<!-- Generator: Adobe Illustrator 18.0.0, SVG Export Plug-In . SVG Version: 6.00 Build 0)  -->
<!DOCTYPE svg PUBLIC "-//W3C//DTD SVG 1.1//EN" "http://www.w3.org/Graphics/SVG/1.1/DTD/svg11.dtd">
<svg version="1.1" id="Layer_1" xmlns="http://www.w3.org/2000/svg" xmlns:xlink="http://www.w3.org/1999/xlink" x="0px" y="0px"
	 viewBox="0 0 24 24" enable-background="new 0 0 24 24" xml:space="preserve">
<g>
	<polygon fill="#010101" points="11,6 11,12 15.2,16.2 16.7,14.8 13,11.2 13,6 	"/>
	<path fill="#010101" d="M12,2C6.5,2,2,6.5,2,12H0.2L3,14.8L5.8,12H4c0-4.4,3.6-8,8-8s8,3.6,8,8s-3.6,8-8,8c-1.9,0-3.7-0.7-5-1.8
		l-1.2,1.6C7.4,21.2,9.6,22,12,22c5.5,0,10-4.5,10-10S17.5,2,12,2z"/>
</g>
<g>
	<polygon fill="#010101" points="49,44 49,50 53.2,54.2 54.7,52.8 51,49.2 51,44 	"/>
	<path fill="#010101" d="M50,40c-5.5,0-10,4.5-10,10h-1.8l2.8,2.8l2.8-2.8H42c0-4.4,3.6-8,8-8s8,3.6,8,8s-3.6,8-8,8
		c-1.9,0-3.7-0.7-5-1.8l-1.2,1.6c1.7,1.4,3.9,2.2,6.3,2.2c5.5,0,10-4.5,10-10S55.5,40,50,40z"/>
</g>
</svg>
