<?xml version="1.0" encoding="utf-8"?>
<!-- Generator: Adobe Illustrator 18.0.0, SVG Export Plug-In . SVG Version: 6.00 Build 0)  -->
<!DOCTYPE svg PUBLIC "-//W3C//DTD SVG 1.1//EN" "http://www.w3.org/Graphics/SVG/1.1/DTD/svg11.dtd">
<svg version="1.1" id="Layer_1" xmlns="http://www.w3.org/2000/svg" xmlns:xlink="http://www.w3.org/1999/xlink" x="0px" y="0px"
	 viewBox="0 0 24 24" enable-background="new 0 0 24 24" xml:space="preserve">
<g>
	<path d="M21,4V3c0-1.7-1.3-3-3-3s-3,1.3-3,3v1c-0.6,0-1,0.4-1,1v4c0,0.6,0.4,1,1,1h6c0.6,0,1-0.4,1-1V5C22,4.4,21.5,4,21,4z
		 M19.5,4h-3V3c0-0.8,0.7-1.5,1.5-1.5s1.5,0.7,1.5,1.5V4z"/>
	<path d="M15.4,13.7L14,14l-0.2,1.4c-0.4,2.8-1.3,4.2-1.7,4.6c-0.4-0.3-1.3-1.8-1.7-4.6L10,14l-1.4-0.2C5.8,13.3,4.4,12.4,4,12
		c0.3-0.4,1.8-1.3,4.6-1.7L10,10l0.2-1.4c0.4-2.8,1.3-4.2,1.7-4.6V2c-1.7,0-3.1,2.6-3.7,6.3C4.6,8.9,2,10.3,2,12s2.6,3.1,6.3,3.7
		c0.6,3.7,2,6.3,3.7,6.3s3.1-2.6,3.7-6.3c3.7-0.6,6.3-2,6.3-3.7h-2.1C19.6,12.4,18.2,13.3,15.4,13.7z"/>
</g>
</svg>
