<?xml version="1.0" encoding="utf-8"?>
<!-- Generator: Adobe Illustrator 18.0.0, SVG Export Plug-In . SVG Version: 6.00 Build 0)  -->
<!DOCTYPE svg PUBLIC "-//W3C//DTD SVG 1.1//EN" "http://www.w3.org/Graphics/SVG/1.1/DTD/svg11.dtd">
<svg version="1.1" id="Layer_1" xmlns="http://www.w3.org/2000/svg" xmlns:xlink="http://www.w3.org/1999/xlink" x="0px" y="0px"
	 viewBox="0 0 24 24" enable-background="new 0 0 24 24" xml:space="preserve">
<g>
	<path d="M15.4,13.7L14,14l-0.2,1.4c-0.4,2.8-1.3,4.2-1.7,4.6c-0.4-0.3-1.3-1.8-1.7-4.6L10,14l-1.4-0.2c-2.8-0.4-4.2-1.3-4.6-1.7
		c0.3-0.4,1.8-1.3,4.6-1.7L10,10l0.2-1.4c0.4-2.8,1.3-4.2,1.7-4.6V2c-1.7,0-3.1,2.6-3.7,6.3C4.6,8.9,2,10.3,2,12s2.6,3.1,6.3,3.7
		c0.6,3.7,2,6.3,3.7,6.3s3.1-2.6,3.7-6.3c3.7-0.6,6.3-2,6.3-3.7h-2.1C19.6,12.4,18.2,13.3,15.4,13.7z"/>
  <path d="M19,0c-2.8,0-5,2.2-5,5s2.2,5,5,5s5-2.2,5-5S21.8,0,19,0z M22,5.8h-2.3V8h-1.5V5.8H16V4.3h2.3V2h1.5v2.3H22V5.8z"/>
</g>
</svg>
