<svg width="24" height="24" viewBox="0 0 24 24" fill="none" xmlns="http://www.w3.org/2000/svg">
<path fill-rule="evenodd" clip-rule="evenodd" d="M16 3L21 8V19C21 20.1046 20.1046 21 19 21H5C3.89543 21 3 20.1046 3 19V5C3 3.89543 3.89543 3 5 3H16ZM19 9H17C15.8954 9 15 8.10457 15 7V5H5V19H19V9Z" fill="black"/>
<path fill-rule="evenodd" clip-rule="evenodd" d="M9 12C9 13.6569 10.3431 15 12 15C13.6569 15 15 13.6569 15 12H17C17 14.7614 14.7614 17 12 17C9.23858 17 7 14.7614 7 12H9Z" fill="black"/>
</svg>
