<?xml version="1.0" encoding="utf-8"?>
<!-- Generator: Adobe Illustrator 18.0.0, SVG Export Plug-In . SVG Version: 6.00 Build 0)  -->
<!DOCTYPE svg PUBLIC "-//W3C//DTD SVG 1.1//EN" "http://www.w3.org/Graphics/SVG/1.1/DTD/svg11.dtd">
<svg version="1.1" id="Layer_1" xmlns="http://www.w3.org/2000/svg" xmlns:xlink="http://www.w3.org/1999/xlink" x="0px" y="0px"
	 viewBox="0 0 24 24" enable-background="new 0 0 24 24" xml:space="preserve">
<g>
	<path d="M12,9c1.7,0,3,1.3,3,3s-1.3,3-3,3s-3-1.3-3-3S10.3,9,12,9 M12,7c-2.8,0-5,2.2-5,5s2.2,5,5,5s5-2.2,5-5S14.8,7,12,7L12,7z"
		/>
	<g>
		<rect x="11" y="2" width="2" height="3"/>
	</g>
	<g>
		<rect x="19" y="11" width="3" height="2"/>
	</g>
	<g>
		<rect x="11" y="19" width="2" height="3"/>
	</g>
	<g>
		<rect x="2" y="11" width="3" height="2"/>
	</g>
	<g>
		<rect x="17" y="4.5" transform="matrix(0.7071 0.7071 -0.7071 0.7071 9.5104 -10.9811)" width="2" height="3"/>
	</g>
	<g>
		<rect x="16.5" y="17" transform="matrix(0.7071 0.7071 -0.7071 0.7071 18.0105 -7.4602)" width="3" height="2"/>
	</g>
	<g>
		<rect x="5" y="16.5" transform="matrix(0.7071 0.7071 -0.7071 0.7071 14.4896 1.0399)" width="2" height="3"/>
	</g>
	<g>
		<rect x="4.5" y="5" transform="matrix(0.7071 0.7071 -0.7071 0.7071 5.9895 -2.4809)" width="3" height="2"/>
	</g>
</g>
</svg>
