<?xml version="1.0" encoding="utf-8"?>
<!-- Generator: Adobe Illustrator 18.0.0, SVG Export Plug-In . SVG Version: 6.00 Build 0)  -->
<!DOCTYPE svg PUBLIC "-//W3C//DTD SVG 1.1//EN" "http://www.w3.org/Graphics/SVG/1.1/DTD/svg11.dtd">
<svg version="1.1" id="Layer_1" xmlns="http://www.w3.org/2000/svg" xmlns:xlink="http://www.w3.org/1999/xlink" x="0px" y="0px"
	 viewBox="0 0 24 24" enable-background="new 0 0 24 24" xml:space="preserve">
<g>
	<path d="M12,11c2.2,0,4-1.8,4-4s-1.8-4-4-4S8,4.8,8,7S9.8,11,12,11z M12,5c1.1,0,2,0.9,2,2s-0.9,2-2,2s-2-0.9-2-2S10.9,5,12,5z"/>
	<path d="M14,13h-4c-3.3,0-6,2.7-6,6v2h16v-2C20,15.7,17.3,13,14,13z M6,19c0-2.2,1.8-4,4-4h4c2.2,0,4,1.8,4,4H6z"/>
</g>
</svg>
