<?xml version="1.0" encoding="utf-8"?>
<!-- Generator: Adobe Illustrator 18.0.0, SVG Export Plug-In . SVG Version: 6.00 Build 0)  -->
<!DOCTYPE svg PUBLIC "-//W3C//DTD SVG 1.1//EN" "http://www.w3.org/Graphics/SVG/1.1/DTD/svg11.dtd">
<svg version="1.1" id="Layer_1" xmlns="http://www.w3.org/2000/svg" xmlns:xlink="http://www.w3.org/1999/xlink" x="0px" y="0px"
	 viewBox="0 0 24 24" enable-background="new 0 0 24 24" xml:space="preserve">
<g>
	<path d="M9,7.8v8.3L6.8,14H4v-4h2.8L9,7.8 M11,3L6,8H4c-1.1,0-2,0.9-2,2v4c0,1.1,0.9,2,2,2h2l5,5V3L11,3z"/>
	<path d="M13,3v2c3.9,0,7,3.1,7,7s-3.1,7-7,7v2c5,0,9-4,9-9S18,3,13,3z"/>
	<g>
		<path d="M13,17v-2c1.7,0,3-1.3,3-3s-1.3-3-3-3V7c2.8,0,5,2.2,5,5S15.8,17,13,17z"/>
	</g>
</g>
</svg>
