<?xml version="1.0" encoding="utf-8"?>
<!-- Generator: Adobe Illustrator 18.0.0, SVG Export Plug-In . SVG Version: 6.00 Build 0)  -->
<!DOCTYPE svg PUBLIC "-//W3C//DTD SVG 1.1//EN" "http://www.w3.org/Graphics/SVG/1.1/DTD/svg11.dtd">
<svg version="1.1" id="Layer_1" xmlns="http://www.w3.org/2000/svg" xmlns:xlink="http://www.w3.org/1999/xlink" x="0px" y="0px"
	 viewBox="0 0 24 24" enable-background="new 0 0 24 24" xml:space="preserve">
<g>
	<path fill="#231F20" d="M9,11H5c-1.1,0-2-0.9-2-2V5c0-1.1,0.9-2,2-2h4c1.1,0,2,0.9,2,2v4C11,10.1,10.1,11,9,11z"/>
</g>
<g>
	<path fill="#231F20" d="M19,11h-4c-1.1,0-2-0.9-2-2V5c0-1.1,0.9-2,2-2h4c1.1,0,2,0.9,2,2v4C21,10.1,20.1,11,19,11z"/>
</g>
<g>
	<path fill="#231F20" d="M9,21H5c-1.1,0-2-0.9-2-2v-4c0-1.1,0.9-2,2-2h4c1.1,0,2,0.9,2,2v4C11,20.1,10.1,21,9,21z"/>
</g>
<g>
	<path fill="#231F20" d="M19,21h-4c-1.1,0-2-0.9-2-2v-4c0-1.1,0.9-2,2-2h4c1.1,0,2,0.9,2,2v4C21,20.1,20.1,21,19,21z"/>
</g>
</svg>
