<?xml version="1.0" encoding="utf-8"?>
<!-- Generator: Adobe Illustrator 18.0.0, SVG Export Plug-In . SVG Version: 6.00 Build 0)  -->
<!DOCTYPE svg PUBLIC "-//W3C//DTD SVG 1.1//EN" "http://www.w3.org/Graphics/SVG/1.1/DTD/svg11.dtd">
<svg version="1.1" id="Layer_1" xmlns="http://www.w3.org/2000/svg" xmlns:xlink="http://www.w3.org/1999/xlink" x="0px" y="0px"
	 viewBox="0 0 24 24" enable-background="new 0 0 24 24" xml:space="preserve">
<path d="M12,2c-0.3,0-0.6,0-0.9,0.1c-3.5,0.4-6.4,3.2-7,6.7c-0.5,3.1,0.8,6,3.1,7.7C7.7,16.8,8,17.4,8,18v4h8v-4
	c0-0.6,0.3-1.2,0.8-1.6c1.9-1.5,3.2-3.8,3.2-6.4C20,5.6,16.4,2,12,2z M15.6,14.8c-1,0.7-1.6,1.9-1.6,3.2v2h-1.3v-8.1
	c0.7-0.3,1.3-1,1.3-1.9c0-1.1-0.9-2-2-2s-2,0.9-2,2c0,0.8,0.5,1.6,1.3,1.9V20H10v-2c0-1.2-0.6-2.4-1.6-3.2C6.6,13.4,5.7,11.3,6.1,9
	c0.4-2.6,2.6-4.7,5.2-5c0.2,0,0.5,0,0.7,0c3.3,0,6,2.7,6,6C18,11.9,17.1,13.7,15.6,14.8z"/>
</svg>
