<?xml version="1.0" encoding="utf-8"?>
<!-- Generator: Adobe Illustrator 18.0.0, SVG Export Plug-In . SVG Version: 6.00 Build 0)  -->
<!DOCTYPE svg PUBLIC "-//W3C//DTD SVG 1.1//EN" "http://www.w3.org/Graphics/SVG/1.1/DTD/svg11.dtd">
<svg version="1.1" id="Layer_1" xmlns="http://www.w3.org/2000/svg" xmlns:xlink="http://www.w3.org/1999/xlink" x="0px" y="0px"
	 viewBox="0 0 24 24" enable-background="new 0 0 24 24" xml:space="preserve">
<path d="M23,12c0-2.4-1.7-4.4-4-4.9V5c0-1.1-0.9-2-2-2H5C3.9,3,3,3.9,3,5v10c0,3.3,2.7,6,6,6h4c2.6,0,4.9-1.7,5.7-4.1
	C21.1,16.6,23,14.5,23,12z M17,5v2H5V5H17z M13,19H9c-2.2,0-4-1.8-4-4V9h12v6C17,17.2,15.2,19,13,19z M19,14.8V9.2
	c1.2,0.4,2,1.5,2,2.8S20.2,14.4,19,14.8z"/>
</svg>
