<?xml version="1.0" encoding="utf-8"?>
<!-- Generator: Adobe Illustrator 18.0.0, SVG Export Plug-In . SVG Version: 6.00 Build 0)  -->
<!DOCTYPE svg PUBLIC "-//W3C//DTD SVG 1.1//EN" "http://www.w3.org/Graphics/SVG/1.1/DTD/svg11.dtd">
<svg version="1.1" id="Layer_1" xmlns="http://www.w3.org/2000/svg" xmlns:xlink="http://www.w3.org/1999/xlink" x="0px" y="0px"
	 viewBox="0 0 24 24" enable-background="new 0 0 24 24" xml:space="preserve">
<g>
	<polygon points="16,12 14,12 14,14 10,14 10,10 12,10 12,8 10,8 10,3 8,3 8,8 3,8 3,10 8,10 8,14 3,14 3,16 8,16 8,21 10,21 10,16 
		14,16 14,21 16,21 16,16 21,16 21,14 16,14 	"/>
	<path d="M21,4V3c0-1.7-1.3-3-3-3s-3,1.3-3,3v1c-0.6,0-1,0.4-1,1v4c0,0.6,0.4,1,1,1h6c0.6,0,1-0.4,1-1V5C22,4.4,21.6,4,21,4z
		 M19.5,4h-3V3c0-0.8,0.7-1.5,1.5-1.5s1.5,0.7,1.5,1.5V4z"/>
</g>
</svg>
