<?xml version="1.0" encoding="utf-8"?>
<!-- Generator: Adobe Illustrator 18.0.0, SVG Export Plug-In . SVG Version: 6.00 Build 0)  -->
<!DOCTYPE svg PUBLIC "-//W3C//DTD SVG 1.1//EN" "http://www.w3.org/Graphics/SVG/1.1/DTD/svg11.dtd">
<svg version="1.1" id="Layer_1" xmlns="http://www.w3.org/2000/svg" xmlns:xlink="http://www.w3.org/1999/xlink" x="0px" y="0px"
	 viewBox="0 0 24 24" enable-background="new 0 0 24 24" xml:space="preserve">
<g>
	<polygon points="16.1,12 14.1,12 14.1,14 10.1,14 10.1,10 12.1,10 12.1,8 10.1,8 10.1,3 8.1,3 8.1,8 3.1,8 3.1,10 8.1,10 8.1,14 
		3.1,14 3.1,16 8.1,16 8.1,21 10.1,21 10.1,16 14.1,16 14.1,21 16.1,21 16.1,16 21.1,16 21.1,14 16.1,14 	"/>
	<path d="M24,9l-2.7-2.7c0.5-0.7,0.8-1.5,0.8-2.3c0-2.2-1.8-4-4-4s-4,1.8-4,4s1.8,4,4,4c0.8,0,1.5-0.2,2.2-0.6l2.7,2.7L24,9z
		 M18.1,6.5c-1.4,0-2.5-1.1-2.5-2.5s1.1-2.5,2.5-2.5s2.5,1.1,2.5,2.5S19.5,6.5,18.1,6.5z"/>
</g>
</svg>
