<?xml version="1.0" encoding="utf-8"?>
<!-- Generator: Adobe Illustrator 18.0.0, SVG Export Plug-In . SVG Version: 6.00 Build 0)  -->
<!DOCTYPE svg PUBLIC "-//W3C//DTD SVG 1.1//EN" "http://www.w3.org/Graphics/SVG/1.1/DTD/svg11.dtd">
<svg version="1.1" id="Layer_1" xmlns="http://www.w3.org/2000/svg" xmlns:xlink="http://www.w3.org/1999/xlink" x="0px" y="0px"
	 viewBox="0 0 24 24" enable-background="new 0 0 24 24" xml:space="preserve">
<g>
	<path d="M16.3,7.3l-1.4,1.4l2.3,2.3H8.2c-0.8,0-1.6-0.3-2.1-0.9C5.6,9.6,5.2,8.8,5.2,8s0.3-1.6,0.9-2.1l1.2-1.2L5.9,3.3L4.7,4.5
		c-1.9,1.9-1.9,5.1,0,7.1C5.7,12.5,6.9,13,8.2,13h8.9l-2.3,2.3l1.4,1.4L21,12L16.3,7.3z"/>
	<polygon points="8.7,19.6 7.1,18 8.7,16.4 7.6,15.4 6,17 4.4,15.4 3.3,16.4 4.9,18 3.3,19.6 4.4,20.7 6,19.1 7.6,20.7 	"/>
</g>
</svg>
