<?xml version="1.0" encoding="utf-8"?>
<!-- Generator: Adobe Illustrator 18.0.0, SVG Export Plug-In . SVG Version: 6.00 Build 0)  -->
<!DOCTYPE svg PUBLIC "-//W3C//DTD SVG 1.1//EN" "http://www.w3.org/Graphics/SVG/1.1/DTD/svg11.dtd">
<svg version="1.1" id="Layer_1" xmlns="http://www.w3.org/2000/svg" xmlns:xlink="http://www.w3.org/1999/xlink" x="0px" y="0px"
	 viewBox="0 0 24 24" enable-background="new 0 0 24 24" xml:space="preserve">
<g>
	<polygon points="19.8,16 18.3,16 18.3,18.3 16,18.3 16,19.8 18.3,19.8 18.3,22 19.8,22 19.8,19.8 22,19.8 22,18.3 19.8,18.3 	"/>
	<path d="M20,4H4C2.9,4,2,4.9,2,6v12c0,1.1,0.9,2,2,2h10v-2H4V9.9l8,5.3l8-5.3V14h2V6C22,4.9,21.1,4,20,4z M20,7.5l-8,5.3L4,7.5V6
		h16V7.5z"/>
</g>
</svg>
