<?xml version="1.0" encoding="utf-8"?>
<!-- Generator: Adobe Illustrator 18.0.0, SVG Export Plug-In . SVG Version: 6.00 Build 0)  -->
<!DOCTYPE svg PUBLIC "-//W3C//DTD SVG 1.1//EN" "http://www.w3.org/Graphics/SVG/1.1/DTD/svg11.dtd">
<svg version="1.1" id="Layer_1" xmlns="http://www.w3.org/2000/svg" xmlns:xlink="http://www.w3.org/1999/xlink" x="0px" y="0px"
	 viewBox="0 0 24 24" enable-background="new 0 0 24 24" xml:space="preserve">
<path d="M12,2C6.5,2,2,6.5,2,12s4.5,10,10,10s10-4.5,10-10S17.5,2,12,2z M20,12c0,1.6-0.5,3.1-1.3,4.3L13,10.6V4.1
	C16.9,4.6,20,7.9,20,12z M11,19.9c-1.7-0.2-3.2-1-4.4-2.1l4.4-4.4V19.9z M13,13.4l4.4,4.4c-1.2,1.1-2.7,1.9-4.4,2.1V13.4z M11,4.1
	v6.5l-5.7,5.7C4.5,15.1,4,13.6,4,12C4,7.9,7.1,4.6,11,4.1z"/>
</svg>
