<?xml version="1.0" encoding="utf-8"?>
<!-- Generator: Adobe Illustrator 18.0.0, SVG Export Plug-In . SVG Version: 6.00 Build 0)  -->
<!DOCTYPE svg PUBLIC "-//W3C//DTD SVG 1.1//EN" "http://www.w3.org/Graphics/SVG/1.1/DTD/svg11.dtd">
<svg version="1.1" id="Layer_1" xmlns="http://www.w3.org/2000/svg" xmlns:xlink="http://www.w3.org/1999/xlink" x="0px" y="0px"
	 viewBox="0 0 24 24" enable-background="new 0 0 24 24" xml:space="preserve">
<g>
	<path d="M13,4v0.6v1.3l1.2,0.5c0.5,0.2,1,0.5,1.4,0.8l1.1,0.8l1.2-0.7l0.5-0.3l1,1.7l-0.5,0.3l-1.2,0.7l0.2,1.3
		c0,0.3,0.1,0.6,0.1,0.8s0,0.5-0.1,0.8l-0.2,1.3l1.2,0.7l0.5,0.3l-1,1.7l-0.5-0.3l-1.2-0.7l-1.1,0.8c-0.4,0.3-0.9,0.6-1.4,0.8
		L13,18.1v1.3V20h-2v-0.6v-1.3l-1.2-0.5c-0.5-0.2-1-0.5-1.4-0.8l-1.1-0.8l-1.2,0.7l-0.5,0.3l-1-1.7l0.5-0.3l1.2-0.7l-0.2-1.3
		C6,12.5,6,12.2,6,12s0-0.5,0.1-0.8l0.2-1.3L5.1,9.2L4.6,8.9l1-1.7l0.5,0.3l1.2,0.7l1.1-0.8c0.4-0.3,0.9-0.6,1.4-0.8L11,5.9V4.6V4
		H13 M13,2h-2C9.9,2,9,2.9,9,4v0.6C8.3,4.9,7.7,5.2,7.1,5.7L6.6,5.4c-0.3-0.2-0.7-0.3-1-0.3c-0.7,0-1.4,0.4-1.7,1l-1,1.7
		c-0.6,1-0.2,2.2,0.7,2.7l0.5,0.3C4,11.3,4,11.6,4,12s0,0.7,0.1,1.1l-0.5,0.3c-1,0.6-1.3,1.8-0.7,2.7l1,1.7c0.4,0.6,1,1,1.7,1
		c0.3,0,0.7-0.1,1-0.3l0.5-0.3c0.6,0.5,1.2,0.8,1.9,1.1V20c0,1.1,0.9,2,2,2h2c1.1,0,2-0.9,2-2v-0.6c0.7-0.3,1.3-0.7,1.9-1.1l0.5,0.3
		c0.3,0.2,0.7,0.3,1,0.3c0.7,0,1.4-0.4,1.7-1l1-1.7c0.6-1,0.2-2.2-0.7-2.7l-0.5-0.3C20,12.7,20,12.4,20,12s0-0.7-0.1-1.1l0.5-0.3
		c1-0.6,1.3-1.8,0.7-2.7l-1-1.7c-0.4-0.6-1-1-1.7-1c-0.3,0-0.7,0.1-1,0.3l-0.5,0.3c-0.6-0.5-1.2-0.8-1.9-1.1V4C15,2.9,14.1,2,13,2
		L13,2z"/>
	<g>
		<path d="M12,16c-2.2,0-4-1.8-4-4s1.8-4,4-4s4,1.8,4,4S14.2,16,12,16z M12,10c-1.1,0-2,0.9-2,2s0.9,2,2,2s2-0.9,2-2S13.1,10,12,10z
			"/>
	</g>
</g>
</svg>
