<?xml version="1.0" encoding="utf-8"?>
<!-- Generator: Adobe Illustrator 18.0.0, SVG Export Plug-In . SVG Version: 6.00 Build 0)  -->
<!DOCTYPE svg PUBLIC "-//W3C//DTD SVG 1.1//EN" "http://www.w3.org/Graphics/SVG/1.1/DTD/svg11.dtd">
<svg version="1.1" id="Layer_1" xmlns="http://www.w3.org/2000/svg" xmlns:xlink="http://www.w3.org/1999/xlink" x="0px" y="0px"
	 viewBox="0 0 24 24" enable-background="new 0 0 24 24" xml:space="preserve">
<g>
	<path d="M12,2L3,6v7c0,5,4,9,9,9c5,0,9-4,9-9V6L12,2z M19,13c0,3.9-3.1,7-7,7s-7-3.1-7-7V7.3l7-3.1l7,3.1V13z"/>
	<path d="M10,11c0,0.7,0.4,1.4,1,1.7V16h2v-3.3c0.6-0.3,1-1,1-1.7c0-1.1-0.9-2-2-2S10,9.9,10,11z"/>
</g>
</svg>
