<?xml version="1.0" encoding="utf-8"?>
<!-- Generator: Adobe Illustrator 18.0.0, SVG Export Plug-In . SVG Version: 6.00 Build 0)  -->
<!DOCTYPE svg PUBLIC "-//W3C//DTD SVG 1.1//EN" "http://www.w3.org/Graphics/SVG/1.1/DTD/svg11.dtd">
<svg version="1.1" id="Layer_1" xmlns="http://www.w3.org/2000/svg" xmlns:xlink="http://www.w3.org/1999/xlink" x="0px" y="0px"
	 viewBox="0 0 24 24" enable-background="new 0 0 24 24" xml:space="preserve">
<path d="M12,4.1c0.4,0.3,1.3,1.8,1.7,4.6L14,10l1.4,0.2c2.8,0.4,4.2,1.3,4.6,1.7c-0.3,0.4-1.8,1.3-4.6,1.7L14,14l-0.2,1.4
	c-0.4,2.8-1.3,4.2-1.7,4.6c-0.4-0.3-1.3-1.8-1.7-4.6L10,14l-1.4-0.2c-2.8-0.4-4.2-1.3-4.6-1.7c0.3-0.4,1.8-1.3,4.6-1.7L10,10
	l0.2-1.4C10.7,5.8,11.6,4.4,12,4.1 M12,2c-1.7,0-3.1,2.6-3.7,6.3C4.6,8.9,2,10.3,2,12s2.6,3.1,6.3,3.7c0.6,3.7,2,6.3,3.7,6.3
	s3.1-2.6,3.7-6.3c3.7-0.6,6.3-2,6.3-3.7s-2.6-3.1-6.3-3.7C15.1,4.6,13.7,2,12,2L12,2z"/>
</svg>
