<svg width="18" height="18" viewBox="0 0 18 18" fill="none" xmlns="http://www.w3.org/2000/svg">
<g clip-path="url(#clip0_2707_2015)">
<path d="M10.5867 17.3522C10.0727 17.4492 9.54226 17.5 9 17.5C4.30558 17.5 0.5 13.6944 0.5 9C0.5 4.30558 4.30558 0.5 9 0.5C13.6944 0.5 17.5 4.30558 17.5 9C17.5 9.54226 17.4492 10.0727 17.3522 10.5867C16.6511 10.2123 15.8503 10 15 10C12.2386 10 10 12.2386 10 15C10 15.8503 10.2123 16.6511 10.5867 17.3522Z" fill="white"/>
<path d="M10 6.39999C10 6.67614 9.77614 6.89999 9.5 6.89999C9.22386 6.89999 9 6.67614 9 6.39999C9 6.12385 9.22386 5.89999 9.5 5.89999C9.77614 5.89999 10 6.12385 10 6.39999Z" fill="black"/>
<path fill-rule="evenodd" clip-rule="evenodd" d="M9 0C4 0 0 4 0 9C0 14 4 18 9 18C9.63967 18 10.263 17.9345 10.8636 17.8099C10.3186 17.0091 10 16.0417 10 15C10 12.2386 12.2386 10 15 10C16.0417 10 17.0091 10.3186 17.8099 10.8636C17.9345 10.263 18 9.63967 18 9C18 4 14 0 9 0ZM1.2 10.8L4.7 8.5V8.2C4.7 6.4 6 5 7.8 4.8H8.2C9.4 4.8 10.5 5.4 11.1 6.4C11.4 6.3 11.7 6.3 12 6.3C12.4 6.3 12.8 6.3 13.2 6.4C13.9 6.6 14.6 6.9 15.2 7.3C14.6 7.1 14 7 13.3 7C12.1 7 11.1 7.4 10.4 8.4C9.7 9.3 9.3 10.4 9.3 11.6C9.3 13.1 8.9 14.5 8 15.8C7.93744 15.8834 7.87923 15.9625 7.82356 16.0381C7.6123 16.325 7.43739 16.5626 7.2 16.8C4.2 16.1 1.9 13.8 1.2 10.8Z" fill="black"/>
<path d="M18 15C18 16.6569 16.6569 18 15 18C13.3431 18 12 16.6569 12 15C12 13.3431 13.3431 12 15 12C16.6569 12 18 13.3431 18 15Z" fill="#989898"/>
</g>
<defs>
<clipPath id="clip0_2707_2015">
<rect width="18" height="18" fill="white"/>
</clipPath>
</defs>
</svg>
