<svg width="1000" height="1000" viewBox="0 0 1000 1000" fill="none" xmlns="http://www.w3.org/2000/svg">
<g clip-path="url(#clip0_33_77)">
<rect width="1000" height="1000" rx="500" fill="#0F0F12"/>
<path d="M1095.03 469.469C1115.75 418.966 1131.62 372.535 1142.65 330.175C1171.15 215.315 1165.58 118.18 1125.92 38.7722C1085.76 -42.5943 1008.95 -116.028 895.503 -181.528C831.349 -218.567 770.856 -244.191 714.025 -258.398C713.951 -242.557 713.875 -226.472 713.799 -210.351C713.118 -65.962 712.424 81.3087 712.438 81.598C722.522 290.701 887.572 457.731 1095.03 469.469Z" fill="#9494FF"/>
<path d="M671.94 -266.936C643.482 -271.324 616.005 -272.654 589.508 -270.928C499.68 -266.276 412.154 -222.894 326.931 -140.783C241.708 -58.6719 149.073 69.0259 49.027 242.311C0.191415 326.897 -40.0833 404.571 -71.7971 475.335C118.533 474.4 280.578 473.602 280.832 473.587C489.82 461.288 658.052 292.03 670.21 81.8025C670.226 81.515 670.942 -63.9161 671.648 -207.43C671.652 -208.284 671.656 -209.139 671.66 -209.993C671.754 -229.14 671.848 -248.238 671.94 -266.936Z" fill="#9494FF"/>
<path d="M-90.1591 517.832C-113.569 574.198 -131.086 625.807 -142.71 672.66C-170.489 786.274 -164.296 883.764 -124.131 965.131C-83.2464 1045.25 -6.07968 1118.06 107.369 1183.56C220.818 1249.06 322.457 1279.48 412.286 1274.83C498.815 1268.43 583.086 1227.17 665.1 1151.07C665.742 1014.25 666.255 904.237 666.244 904.01C656.063 693.937 489.473 526.352 280.628 516.078C280.366 516.065 107.906 516.887 -90.1591 517.832Z" fill="#9494FF"/>
<path d="M707.478 1107.6C708.043 991.571 708.472 904.008 708.483 903.805C720.26 701.011 877.271 536.361 1075.98 513.993C1042.91 588.371 1000.24 670.815 947.987 761.326C862.082 910.119 781.912 1025.54 707.478 1107.6Z" fill="#9494FF"/>
</g>
<rect x="0.5" y="0.5" width="999" height="999" rx="499.5" stroke="black"/>
<defs>
<clipPath id="clip0_33_77">
<rect width="1000" height="1000" rx="500" fill="white"/>
</clipPath>
</defs>
</svg>
