<svg xmlns="http://www.w3.org/2000/svg" width="512" height="512" viewBox="0 0 512 512" fill="none">
  <g clip-path="url(#a)">
    <mask id="b" width="512" height="512" x="0" y="0" maskUnits="userSpaceOnUse" style="mask-type:luminance">
      <path fill="#fff" fill-rule="evenodd" d="M256 0c141.385 0 256 114.615 256 256S397.385 512 256 512c-18.41 0-36.366-1.943-53.675-5.636C217.893 483.634 227 456.131 227 426.5 227 348.35 163.65 285 85.5 285c-29.631 0-57.135 9.107-79.864 24.675C1.943 292.366 0 274.41 0 256 0 114.615 114.615 0 256 0Z" clip-rule="evenodd"/>
    </mask>
    <g mask="url(#b)">
      <path fill="#0F0F12" d="M512 256C512 114.615 397.385 0 256 0S0 114.615 0 256s114.615 256 256 256 256-114.615 256-256Z"/>
      <path fill="#9494FF" d="M560.655 240.368c10.609-25.857 18.734-49.63 24.382-71.318 14.592-58.809 11.74-108.542-8.566-149.199-20.562-41.66-59.889-79.257-117.974-112.793-32.846-18.964-63.819-32.084-92.916-39.358l-.116 24.6c-.349 73.927-.704 149.33-.697 149.478 5.163 107.061 89.669 192.58 195.887 198.59ZM344.034-136.671c-14.571-2.247-28.639-2.928-42.206-2.044-45.992 2.382-90.805 24.593-134.439 66.634C123.755-30.04 76.326 35.341 25.102 124.063.098 167.371-20.522 207.14-36.76 243.372c97.45-.479 180.416-.888 180.546-.895 107.002-6.297 193.137-92.958 199.362-200.594.008-.147.375-74.608.736-148.087l.006-1.312.144-29.155ZM-46.161 265.13c-11.986 28.859-20.955 55.283-26.906 79.272-14.223 58.17-11.053 108.085 9.512 149.745 20.933 41.021 60.442 78.3 118.528 111.836 58.086 33.536 110.125 49.111 156.117 46.73 44.303-3.277 87.45-24.402 129.441-63.365.329-70.052.592-126.379.586-126.495-5.213-107.557-90.507-193.361-197.435-198.621-.135-.007-88.434.414-189.843.898ZM362.229 567.091c.289-59.407.508-104.239.514-104.343 6.03-103.83 86.42-188.131 188.159-199.583-16.932 38.081-38.779 80.292-65.533 126.634-43.983 76.182-85.03 135.278-123.14 177.292Z"/>
    </g>
    <path fill="#97FF45" d="M170.667 426.333c0 47.13-38.204 85.334-85.334 85.334S0 473.463 0 426.333C0 379.204 38.204 341 85.333 341c47.13 0 85.334 38.204 85.334 85.333Z"/>
  </g>
  <defs><clipPath id="a"><path fill="#fff" d="M0 0h512v512H0z"/></clipPath></defs>
</svg>